<?xml version="1.0" encoding="utf-8"?>
<!-- Generator: Adobe Illustrator 23.0.1, SVG Export Plug-In . SVG Version: 6.00 Build 0)  -->
<svg version="1.1" id="Layer_1" xmlns="http://www.w3.org/2000/svg" xmlns:xlink="http://www.w3.org/1999/xlink" x="0px" y="0px"
	 viewBox="0 0 197.9 45.4" style="enable-background:new 0 0 197.9 45.4;" xml:space="preserve">
<style type="text/css">
	.st0{fill:#D20018;}
	.st1{fill:none;stroke:#FFFFFF;stroke-width:1.382;}
	.st2{fill:#231F20;}
</style>
<rect y="0.7" class="st0" width="50.1" height="44.4"/>
<g transform="translate(3.528 3.549)">
	<path class="st1" d="M3.8,0c0,0,10.4,15.4,0.5,38.8"/>
	<path class="st1" d="M0,0c0,0,10.4,15.4,0.5,38.8"/>
	<path class="st1" d="M7.4,0c0,0,10.4,15.4,0.5,38.8"/>
	<path class="st1" d="M12.3,15.2c4.1,0.1,8.2,0.4,12.3,0.9C37.5,18.3,41.7,27,42.4,30.5c0.4,2.6,0.6,5.3,0.6,7.9"/>
	<path class="st1" d="M12.3,18.1c3.6,0.1,7.3,0.4,10.9,0.9C34.7,21.2,38,29.1,38.6,32.6c0.3,1.9,0.5,3.8,0.4,5.8"/>
	<path class="st1" d="M12,21.2c3.2,0.1,6.3,0.4,9.5,0.9c6.9,1.3,12.2,6.7,13.4,13.6c0.1,1,0.2,1.9,0.2,2.9"/>
</g>
<g transform="translate(60.667)">
	<path class="st2" d="M0,0.9c2.4-0.4,4.9-0.6,7.4-0.6c3.8,0,6.6,0.9,8.4,2.4s2.7,3.8,2.7,6.1c0.1,2.3-0.7,4.6-2.3,6.3
		c-2,2.1-5.4,3.2-9.1,3.2c-1,0-2.1-0.1-3.1-0.3v11.7H0V0.9z M3.9,15c1,0.2,2.1,0.3,3.2,0.3c4.7,0,7.5-2.3,7.5-6.2s-2.8-5.8-7-5.8
		C6.4,3.3,5.2,3.4,4,3.6V15H3.9z"/>
	<path class="st2" d="M35.2,30.3c-7.9,0-13.4-6-13.4-14.9C21.8,6.1,27.6,0,35.6,0c8.2,0,13.5,6.1,13.5,14.8
		C49.1,24.9,42.8,30.3,35.2,30.3L35.2,30.3z M35.4,27.2c6.1,0,9.6-5.5,9.6-12.2c0-5.8-3.1-11.9-9.5-11.9S25.8,9,25.8,15.3
		C25.8,21.5,29.3,27.2,35.4,27.2L35.4,27.2z"/>
	<path class="st2" d="M54,0.5h3.9v26.1h12.8v3.2H54V0.5z"/>
	<path class="st2" d="M74.5,25.2c2.1,1.3,4.4,1.9,6.9,1.9c3.9,0,6.2-2,6.2-5c0-2.7-1.6-4.3-5.6-5.8c-4.9-1.7-7.9-4.3-7.9-8.4
		c0-4.6,3.9-8,9.7-8c2.3-0.1,4.5,0.4,6.6,1.4l-1.1,3.1C87.6,3.5,85.6,3,83.7,3c-4.1,0-5.6,2.4-5.6,4.4c0,2.7,1.8,4.1,5.9,5.7
		c5,2,7.6,4.3,7.6,8.6c0,4.5-3.4,8.5-10.4,8.5c-2.7,0-5.3-0.6-7.6-1.9L74.5,25.2z"/>
	<path class="st2" d="M112.2,16h-11.6v10.6h12.9v3.2H96.8V0.5H113v3.2h-12.3V13h11.6L112.2,16L112.2,16z"/>
	<path class="st2" d="M124.3,3.7h-9.1V0.5h22.1v3.2h-9.1v26.1h-3.9L124.3,3.7z"/>
</g>
<g transform="translate(60.306 37.545)">
	<path class="st2" d="M6.8,4.4C6.7,3.3,6.6,2.1,6.6,1.1l0,0C6.3,2,6,3,5.6,4L4.3,7.7H3.5L2.2,4.1C1.9,3,1.6,2,1.3,1.1l0,0
		c0,1-0.1,2.2-0.2,3.4L1,7.8H0l0.5-7.6h1.3l1.3,3.7c0.3,0.9,0.6,1.8,0.8,2.6l0,0c0.2-0.8,0.5-1.6,0.8-2.6l1.4-3.7h1.3l0.5,7.6h-1
		L6.8,4.4z"/>
	<path class="st2" d="M14.6,4.2h-3v2.7H15v0.8h-4.4V0.1h4.2V1h-3.2v2.4h3V4.2z"/>
	<path class="st2" d="M17.5,0.2C18.1,0.1,18.7,0,19.3,0c0.7,0,1.5,0.2,2.1,0.6c0.4,0.3,0.7,0.8,0.7,1.3c0,0.8-0.6,1.5-1.3,1.7l0,0
		c0.9,0.2,1.6,1,1.6,1.9c0,0.6-0.2,1.1-0.7,1.5C20.9,7.7,20,7.9,19,7.8c-0.5,0-1,0-1.6-0.1L17.5,0.2z M18.5,3.4h0.9
		c1.1,0,1.7-0.6,1.7-1.3c0-0.9-0.7-1.2-1.7-1.2c-0.3,0-0.6,0-0.9,0.1V3.4z M18.5,7c0.3,0,0.6,0.1,0.8,0c1,0,2-0.4,2-1.5
		c0-1-0.9-1.5-2-1.5h-0.8V7z"/>
	<path class="st2" d="M24.8,0.1h1v6.8h3.3v0.8h-4.3V0.1z"/>
	<path class="st2" d="M35.5,4.2h-3v2.7h3.4v0.8h-4.4V0.1h4.2V1h-3.2v2.4h3V4.2z"/>
	<path class="st2" d="M46.9,1h-2.4V0.1h5.8V1H48v6.8h-1L46.9,1L46.9,1z"/>
	<path class="st2" d="M52.8,5.4L52,7.8h-1l2.6-7.6h1.2l2.7,7.6h-1.1l-0.8-2.4H52.8z M55.3,4.6l-0.8-2.2c-0.2-0.5-0.3-0.9-0.4-1.4
		l0,0c-0.1,0.4-0.2,0.9-0.4,1.4L53,4.6H55.3z"/>
	<path class="st2" d="M59.7,0.2C60.3,0.1,61,0,61.6,0c0.8-0.1,1.6,0.2,2.2,0.6c0.5,0.4,0.7,1,0.7,1.6s-0.2,1.2-0.6,1.6
		c-0.6,0.6-1.5,0.9-2.4,0.8c-0.3,0-0.5,0-0.8-0.1v3.1h-1V0.2z M60.7,3.9C61,4,61.3,4,61.5,4c1.2,0,2-0.6,2-1.6s-0.7-1.5-1.8-1.5
		c-0.3,0-0.6,0-0.9,0.1L60.7,3.9z"/>
	<path class="st2" d="M68,0.1v7.6h-1V0.1H68z"/>
	<path class="st2" d="M76.3,7.5c-0.7,0.3-1.4,0.4-2.1,0.4c-2,0.1-3.7-1.4-3.8-3.4c0-0.2,0-0.3,0-0.5c-0.1-2.1,1.5-3.9,3.6-4
		c0.1,0,0.3,0,0.4,0c0.6,0,1.3,0.1,1.8,0.3l-0.3,0.8c-0.5-0.2-1-0.3-1.6-0.3c-1.6-0.1-2.9,1.1-3,2.7c0,0.2,0,0.3,0,0.5
		c-0.2,1.5,1,2.9,2.5,3.1c0.2,0,0.3,0,0.5,0c0.6,0,1.1-0.1,1.6-0.3L76.3,7.5z"/>
	<path class="st2" d="M82.8,4.2h-3v2.7h3.4v0.8h-4.4V0.1H83V1h-3.2v2.4h3V4.2z"/>
	<path class="st2" d="M85.6,0.2C86.2,0.1,86.9,0,87.5,0c0.8-0.1,1.6,0.1,2.3,0.6C90.2,1,90.4,1.5,90.4,2c0,0.9-0.6,1.7-1.5,1.9l0,0
		C89.5,4.4,90,5,90,5.7c0.1,0.7,0.3,1.4,0.6,2.1h-1c-0.2-0.6-0.4-1.2-0.5-1.8c-0.2-1.1-0.7-1.4-1.6-1.5h-0.9v3.3h-1V0.2z M86.6,3.7
		h1c1.1,0,1.8-0.6,1.8-1.5c0-1-0.7-1.4-1.8-1.4c-0.3,0-0.7,0-1,0.1V3.7z"/>
	<path class="st2" d="M96,7.9c-2.1,0-3.5-1.6-3.5-3.9c0-2.4,1.5-4,3.6-4s3.5,1.6,3.5,3.9C99.6,6.5,98,7.9,96,7.9L96,7.9z M96,7.1
		c1.6,0,2.5-1.4,2.5-3.2c0-1.5-0.8-3.1-2.5-3.1S93.5,2.3,93.5,4C93.5,5.6,94.4,7.1,96,7.1L96,7.1z"/>
	<path class="st2" d="M103.4,7.8l-2-7.6h1.1l0.9,3.9c0.2,1,0.4,1.9,0.6,2.6l0,0c0.1-0.8,0.4-1.7,0.6-2.7l1-3.8h1l0.9,3.9
		c0.2,0.9,0.4,1.8,0.5,2.6l0,0c0.2-0.8,0.4-1.7,0.6-2.6l1-3.8h1l-2.2,7.6h-1.1l-1-4c-0.2-0.8-0.4-1.7-0.5-2.5l0,0
		c-0.1,0.8-0.3,1.7-0.6,2.5l-1.1,4L103.4,7.8z"/>
	<path class="st2" d="M113.6,5.4l-0.8,2.4h-1l2.6-7.6h1.2l2.7,7.6h-1.1l-0.8-2.4H113.6z M116.2,4.6l-0.8-2.2
		c-0.2-0.5-0.3-0.9-0.4-1.4l0,0c-0.1,0.4-0.2,0.9-0.4,1.4l-0.8,2.2H116.2z"/>
	<path class="st2" d="M120.6,7.8V0.1h1.1l2.5,3.9c0.5,0.8,1,1.6,1.4,2.5l0,0c-0.1-1-0.1-1.9-0.1-3.1V0.1h0.9v7.6h-1l-2.5-3.9
		c-0.5-0.8-1-1.7-1.4-2.6l0,0c0.1,1,0.1,1.9,0.1,3.2v3.3h-1V7.8z"/>
	<path class="st2" d="M133.3,4.2h-3v2.7h3.4v0.8h-4.4V0.1h4.2V1h-3.2v2.4h3V4.2z"/>
</g>
</svg>
