<?xml version="1.0" standalone="no"?>
<!DOCTYPE svg PUBLIC "-//W3C//DTD SVG 1.1//EN" "http://www.w3.org/Graphics/SVG/1.1/DTD/svg11.dtd" >
<svg xmlns="http://www.w3.org/2000/svg">
<metadata>Generated by IcoMoon</metadata>
<defs>
<font id="icomoon" horiz-adv-x="1024">
<font-face units-per-em="1024" ascent="960" descent="-64" />
<missing-glyph horiz-adv-x="1024" />
<glyph unicode="&#x20;" horiz-adv-x="512" d="" />
<glyph unicode="&#xe900;" glyph-name="arrow-left" d="M220.154 447.436c0 18.064 6.774 37.257 21.451 50.805l440.309 440.309c28.225 28.225 73.385 28.225 101.61 0s28.225-73.385 0-101.61l-390.633-389.504 389.504-389.504c28.225-28.225 28.225-73.385 0-101.61s-73.385-28.225-101.61 0l-440.309 440.309c-13.548 14.677-20.322 32.741-20.322 50.805z" />
<glyph unicode="&#xe901;" glyph-name="arrow-right" d="M803.846 447.436c0-18.064-6.774-37.257-21.451-50.805l-440.309-440.309c-28.225-28.225-73.385-28.225-101.61 0s-28.225 73.385 0 101.61l389.504 389.504-388.375 390.633c-28.225 28.225-28.225 73.385 0 101.61s73.385 28.225 101.61 0l440.309-440.309c13.548-14.677 20.322-32.741 20.322-51.934z" />
<glyph unicode="&#xe902;" glyph-name="basket" d="M884.004 745.491h-198.703v41.773c0 94.836-76.772 172.736-172.736 172.736-94.836 0-172.736-76.772-172.736-171.607 0 0 0-1.129 0-1.129v-41.773h-199.832l-25.967-809.491h795.943l-25.967 809.491zM418.858 786.135c0 51.934 40.644 93.707 92.578 94.836 0 0 1.129 0 1.129 0 51.934 0 94.836-42.902 94.836-94.836v-40.644h-188.542v40.644zM195.316 15.030l21.451 651.431h591.594l21.451-651.431h-634.496z" />
<glyph unicode="&#xe903;" glyph-name="eye" d="M512.564 623.559c-16.935 0-33.87-3.387-49.676-7.903 6.774-13.548 11.29-28.225 11.29-44.031 0-49.676-40.644-89.191-89.191-89.191-15.806 0-30.483 4.516-44.031 11.29-27.096-94.836 27.096-194.187 123.061-220.154s193.058 25.967 220.154 121.932c27.096 94.836-27.096 194.187-123.061 220.154-16.935 5.645-32.741 7.903-48.547 7.903zM967.55 466.628c-86.933 172.736-261.927 282.249-454.986 284.507-194.187-2.258-369.182-111.771-456.115-284.507-6.774-14.677-6.774-32.741 0-46.289 86.933-172.736 261.927-282.249 454.986-284.507 193.058 2.258 369.182 111.771 454.986 284.507 7.903 14.677 7.903 31.612 1.129 46.289zM512.564 213.733c-160.318 1.129-305.958 89.191-381.601 230.315 75.643 141.125 221.283 230.315 381.601 230.315 159.189-1.129 305.958-89.191 381.601-230.315-76.772-141.125-222.412-229.186-381.601-230.315z" />
<glyph unicode="&#xe904;" glyph-name="search" d="M877.23 523.078c0 241.605-195.316 439.18-436.922 439.18 0 0-1.129 0-1.129 0-242.734 0-439.18-196.445-439.18-438.051 0 0 0 0 0 0 0-241.605 196.445-438.051 438.051-438.051 0 0 0 0 0 0 101.61 0 200.961 34.999 278.862 99.352l252.895-252.895 54.192 54.192-251.766 251.766c67.74 80.159 104.997 180.639 104.997 284.507zM438.051 161.799c-48.547 0-95.965 9.032-141.125 28.225-42.902 18.064-82.417 44.031-115.158 76.772s-58.708 72.256-76.772 115.158c-19.193 45.16-28.225 92.578-28.225 141.125s10.161 97.094 29.354 142.254c18.064 42.902 44.031 82.417 76.772 115.158s72.256 59.837 115.158 77.901c45.16 18.064 92.578 28.225 141.125 28.225s97.094-10.161 142.254-29.354c42.902-18.064 81.288-44.031 114.029-76.772s59.837-72.256 77.901-116.287c19.193-45.16 28.225-92.578 28.225-141.125s-9.032-95.965-28.225-139.996c-18.064-42.902-44.031-82.417-76.772-114.029-32.741-33.87-72.256-59.837-115.158-79.030-46.289-19.193-93.707-28.225-143.383-28.225z" />
<glyph unicode="&#xe905;" glyph-name="transfer-left" d="M0 447.436l275.475 275.475v-228.057h748.525v-94.836h-748.525v-228.057l-275.475 275.475z" />
<glyph unicode="&#xe906;" glyph-name="transfer-right" d="M1024 447.436l-275.475-275.475v229.186h-748.525v94.836h748.525v228.057l275.475-276.604z" />
<glyph unicode="&#xe907;" glyph-name="user" d="M683.043 390.986c86.933 57.579 139.996 154.673 139.996 258.54 0 171.607-138.867 310.474-310.474 310.474 0 0 0 0 0 0-171.607 0-310.474-138.867-310.474-310.474 0 0 0 0 0 0 0-104.997 53.063-202.090 139.996-258.54-189.671-71.127-316.119-252.895-314.99-454.986h82.417c-1.129 222.412 179.51 403.052 401.923 403.052 0 0 0 0 0 0 223.541 0 403.052-179.51 404.181-403.052 0 0 0 0 0-1.129h81.288c1.129 203.219-125.319 384.988-313.861 456.115zM283.378 649.526c0 126.448 102.739 228.057 228.057 228.057 126.448 0 228.057-102.739 228.057-228.057 0-126.448-102.739-228.057-228.057-228.057s-228.057 101.61-228.057 228.057v0z" />
<glyph unicode="&#xe908;" glyph-name="menu" d="M982.636 489.364h-941.272c-22.844 0-41.364-18.518-41.364-41.364s18.52-41.364 41.364-41.364h941.272c22.846 0 41.364 18.518 41.364 41.364 0 22.844-18.518 41.364-41.364 41.364zM982.636 803.122h-941.272c-22.844 0-41.364-18.52-41.364-41.364s18.52-41.364 41.364-41.364h941.272c22.846 0 41.364 18.52 41.364 41.364s-18.518 41.364-41.364 41.364zM982.636 175.606h-941.272c-22.844 0-41.364-18.518-41.364-41.364s18.52-41.364 41.364-41.364h941.272c22.846 0 41.364 18.518 41.364 41.364s-18.518 41.364-41.364 41.364z" />
<glyph unicode="&#xe909;" glyph-name="plus" d="M36.128 411.308c-20.322 0-36.128 16.935-36.128 37.257s15.806 36.128 36.128 36.128h439.18v438.051c0 20.322 16.935 37.257 37.257 37.257s36.128-16.935 36.128-37.257v-439.18h439.18c20.322 0 37.257-15.806 37.257-36.128s-16.935-37.257-37.257-37.257h-439.18v-439.18c0-20.322-15.806-37.257-36.128-37.257s-37.257 16.935-37.257 37.257v440.309h-439.18z" />
<glyph unicode="&#xe90a;" glyph-name="delete" d="M846.748 839.197h-136.609v89.191c0 18.064-14.677 31.612-32.741 31.612-2.258 0-3.387-1.129-3.387-1.129s-1.129 1.129-2.258 1.129h-325.151c-18.064 0-31.612-13.548-31.612-31.612v-89.191h-137.738c-39.515 0-69.998-30.483-69.998-69.998v-114.029h60.966v-650.302c0-39.515 30.483-68.869 68.869-68.869h549.821c39.515 0 69.998 30.483 69.998 68.869v650.302h59.837v114.029c0 39.515-30.483 69.998-69.998 69.998zM378.214 896.776h268.701v-57.579h-268.701v57.579zM792.556 4.869c0-4.516-2.258-5.645-5.645-5.645h-549.821c-4.516 0-5.645 2.258-5.645 5.645v650.302h561.111v-650.302zM852.393 718.395h-680.785v50.805c0 4.516 2.258 6.774 5.645 6.774h669.495c4.516 0 5.645-2.258 5.645-6.774v-50.805zM628.851 580.657h64.353v-524.983h-64.353v524.983zM480.953 580.657h64.353v-524.983h-64.353v524.983zM333.054 580.657h64.353v-524.983h-64.353v524.983z" />
<glyph unicode="&#xe90b;" glyph-name="warning" d="M512.564 257.764c-28.225 0-53.063-23.709-53.063-53.063 0-28.225 23.709-53.063 53.063-53.063 27.096 0 53.063 23.709 50.805 50.805 1.129 31.612-22.58 55.321-50.805 55.321zM999.162 71.48c32.741 57.579 32.741 125.319 0 181.768l-329.667 571.272c-32.741 57.579-91.449 91.449-158.060 91.449s-125.319-33.87-158.060-91.449l-328.538-571.272c-32.741-57.579-32.741-126.448 1.129-182.897 32.741-56.45 91.449-90.32 156.931-90.32h658.205c65.482 0 125.319 33.87 158.060 91.449zM928.035 113.252c-18.064-31.612-50.805-50.805-86.933-50.805h-659.334c-36.128 0-67.74 18.064-85.804 49.676s-18.064 68.869 0 100.481l329.667 571.272c18.064 31.612 49.676 49.676 85.804 49.676s67.74-19.193 85.804-49.676l329.667-571.272c19.193-31.612 19.193-68.869 1.129-99.352zM499.017 628.075c-24.838-6.774-40.644-29.354-40.644-57.579 1.129-16.935 2.258-33.87 3.387-49.676 3.387-63.224 6.774-125.319 11.29-188.542 1.129-21.451 18.064-37.257 39.515-37.257s38.386 16.935 39.515 38.386c0 13.548 0 24.838 1.129 38.386 2.258 40.644 4.516 81.288 6.774 121.932 1.129 25.967 3.387 53.063 4.516 79.030 0 9.032-1.129 18.064-4.516 25.967-11.29 22.58-36.128 34.999-60.966 29.354z" />
<glyph unicode="&#xe90c;" glyph-name="check" d="M870.456 960l139.996-89.191-581.433-934.809-414.342 480.953 128.706 111.771 260.798-302.571 466.276 733.848z" />
<glyph unicode="&#xe90d;" glyph-name="printer" d="M847.877 750.007h-25.967v58.708c-1.129 83.546-68.869 151.286-152.415 151.286h-317.248c-83.546 0-151.286-67.74-151.286-151.286v-58.708h-23.709c-83.546 0-151.286-67.74-151.286-151.286v-243.863c-1.129-83.546 67.74-151.286 151.286-151.286h23.709v-191.929c0-41.773 33.87-75.643 75.643-75.643h468.534c41.773 0 75.643 33.87 75.643 75.643v191.929h25.967c83.546 0 151.286 67.74 151.286 151.286v243.863c1.129 83.546-67.74 151.286-150.157 151.286zM257.411 808.714c0 51.934 41.773 93.707 93.707 93.707h317.248c51.934 0 93.707-41.773 93.707-93.707v-58.708h-504.662v58.708zM763.202 10.514c0-10.161-7.903-18.064-18.064-18.064h-469.663c-10.161 0-18.064 7.903-18.064 18.064v317.248h505.791v-317.248zM941.583 354.858c0-51.934-41.773-93.707-93.707-93.707h-25.967v66.611h37.257c15.806 0 28.225 12.419 28.225 28.225s-12.419 28.225-28.225 28.225h-701.107c-15.806 0-28.225-12.419-28.225-28.225s12.419-28.225 28.225-28.225h41.773v-67.74h-23.709c-51.934 0-93.707 41.773-93.707 93.707v244.992c0 51.934 41.773 93.707 93.707 93.707h670.624c51.934 0 93.707-41.773 93.707-93.707v-243.863zM327.409 186.637h364.666c15.806 0 28.225 12.419 28.225 28.225s-12.419 28.225-28.225 28.225h-364.666c-15.806 0-28.225-12.419-28.225-28.225s12.419-28.225 28.225-28.225zM694.333 126.8h-364.666c-15.806 0-28.225-12.419-28.225-28.225s12.419-28.225 28.225-28.225h364.666c15.806 0 28.225 12.419 28.225 28.225s-12.419 28.225-28.225 28.225zM846.748 637.107h-58.708c-15.806 0-28.225-12.419-28.225-28.225s12.419-28.225 28.225-28.225h58.708c15.806 0 28.225 12.419 28.225 28.225s-12.419 28.225-28.225 28.225z" />
<glyph unicode="&#xe90e;" glyph-name="close" d="M602.561 447.989l402.675 402.675c25.018 24.996 25.018 65.554 0 90.551-25.018 25.018-65.533 25.018-90.551 0l-402.675-402.675-402.697 402.675c-25.018 25.018-65.533 25.018-90.551 0-25.018-24.996-25.018-65.554 0-90.551l402.697-402.675-402.697-402.675c-25.018-24.996-25.018-65.554 0-90.551 12.509-12.488 28.903-18.742 45.275-18.742s32.766 6.254 45.275 18.763l402.697 402.675 402.675-402.675c12.509-12.509 28.903-18.763 45.275-18.763s32.766 6.254 45.275 18.763c25.018 24.996 25.018 65.554 0 90.551l-402.675 402.654z" />
<glyph unicode="&#xe90f;" glyph-name="info" d="M512 960c-282.774 0-512-229.234-512-512 0-282.782 229.226-512 512-512s512 229.218 512 512c0 282.766-229.226 512-512 512zM512 704c35.348 0 64-28.656 64-64 0-35.36-28.652-64-64-64s-64 28.64-64 64c0 35.344 28.652 64 64 64zM608 192h-192c-17.672 0-32 14.312-32 32 0 17.672 14.328 32 32 32h32v192h-32c-17.672 0-32 14.312-32 32 0 17.672 14.328 32 32 32h128c17.672 0 32-14.328 32-32v-224h32c17.672 0 32-14.328 32-32 0-17.688-14.328-32-32-32z" />
<glyph unicode="&#xe910;" glyph-name="danger" d="M512 960c-283.006 0-512-229.014-512-512 0-283.006 229.014-512 512-512 283.006 0 512 229.014 512 512 0 283.006-229.014 512-512 512zM512 16c-238.786 0-432 193.23-432 432 0 238.786 193.23 432 432 432 238.786 0 432-193.23 432-432 0-238.786-193.23-432-432-432zM512 702.246c-22.092 0-40-17.908-40-40v-257.586c0-22.092 17.908-40 40-40s40 17.908 40 40v257.586c0 22.092-17.908 40-40 40zM566 261.68c0-29.823-24.177-54-54-54s-54 24.177-54 54c0 29.823 24.177 54 54 54s54-24.177 54-54z" />
<glyph unicode="&#xe911;" glyph-name="eye-slash" d="M1014.968 104.221l-957.389 747.396c-11.29 9.032-27.096 6.774-36.128-3.387l-15.806-20.322c-9.032-11.29-6.774-27.096 3.387-36.128 0 0 0 0 0 0l957.389-748.525c11.29-9.032 27.096-6.774 36.128 4.516l15.806 20.322c9.032 11.29 6.774 27.096-3.387 36.128 0 0 0 0 0 0v0zM475.308 623.559l215.638-168.221c-3.387 98.223-85.804 176.123-184.026 172.736-11.29-1.129-21.451-2.258-31.612-4.516zM548.692 272.441l-215.638 169.35c3.387-95.965 82.417-172.736 178.381-172.736 13.548 0 25.967 1.129 37.257 3.387v0zM512.564 678.88c159.189-1.129 305.958-89.191 380.472-230.315-19.193-34.999-42.902-67.74-69.998-95.965l59.837-47.418c33.87 36.128 62.095 76.772 84.675 119.674 7.903 14.677 7.903 31.612 0 46.289-86.933 172.736-261.927 282.249-454.986 283.378-57.579 0-114.029-10.161-167.092-30.483l74.514-57.579c29.354 7.903 60.966 11.29 92.578 12.419zM512.564 217.12c-159.189 1.129-305.958 89.191-380.472 230.315 19.193 34.999 42.902 67.74 69.998 95.965l-59.837 47.418c-33.87-34.999-63.224-75.643-85.804-119.674-7.903-14.677-7.903-31.612 0-46.289 85.804-172.736 261.927-282.249 454.986-283.378 57.579 0 114.029 10.161 167.092 30.483l-74.514 57.579c-29.354-7.903-60.966-11.29-91.449-12.419z" />
<glyph unicode="&#xe912;" glyph-name="calendar" d="M373.086 395.064c0 12.827-10.405 23.22-23.243 23.22h-81.108c-12.823 0-23.23-10.392-23.23-23.22v-81.097c0-12.844 10.407-23.24 23.23-23.24h81.108c12.838 0 23.243 10.396 23.243 23.24v81.097zM575.785 395.064c0 12.827-10.407 23.22-23.22 23.22h-81.118c-12.823 0-23.23-10.392-23.23-23.22v-81.097c0-12.844 10.407-23.24 23.23-23.24h81.118c12.813 0 23.22 10.396 23.22 23.24v81.097zM778.495 395.064c0 12.827-10.407 23.22-23.23 23.22h-81.108c-12.838 0-23.243-10.392-23.243-23.22v-81.097c0-12.844 10.405-23.24 23.243-23.24h81.108c12.823 0 23.23 10.396 23.23 23.24v81.097zM373.086 192.344c0 12.848-10.405 23.232-23.243 23.232h-81.108c-12.823 0-23.23-10.384-23.23-23.232v-81.083c0-12.836 10.407-23.23 23.23-23.23h81.108c12.838 0 23.243 10.396 23.243 23.23v81.083zM575.785 192.344c0 12.848-10.407 23.232-23.22 23.232h-81.118c-12.823 0-23.23-10.384-23.23-23.232v-81.083c0-12.836 10.407-23.23 23.23-23.23h81.118c12.813 0 23.22 10.396 23.22 23.23v81.083zM778.495 192.344c0 12.848-10.407 23.232-23.22 23.232h-81.118c-12.838 0-23.243-10.384-23.243-23.232v-81.083c0-12.836 10.405-23.23 23.243-23.23h81.118c12.813 0 23.22 10.396 23.22 23.23v81.083zM923.524 845.981v-123.87c0-55.988-45.42-101.105-101.399-101.105h-63.965c-55.984 0-102.005 45.117-102.005 101.105v124.314h-288.309v-124.314c0-55.988-46.020-101.105-101.995-101.105h-63.978c-55.977 0-101.395 45.117-101.395 101.105v123.87c-48.925-1.475-89.127-41.958-89.127-91.718v-725.935c0-50.695 41.090-92.331 91.785-92.331h817.728c50.62 0 91.785 41.721 91.785 92.331v725.935c0 49.76-40.2 90.243-89.125 91.718zM893.814 73.534c0-21.908-17.763-39.682-39.68-39.682h-686.015c-21.917 0-39.68 17.774-39.68 39.682v374.971c0 21.917 17.761 39.691 39.68 39.691h686.013c21.917 0 39.68-17.774 39.68-39.691l0.002-374.971zM201.648 687.413h63.271c19.205 0 34.776 15.548 34.776 34.753v203.069c0 19.207-15.571 34.765-34.776 34.765h-63.271c-19.207 0-34.776-15.559-34.776-34.765v-203.069c0-19.205 15.569-34.753 34.776-34.753zM757.346 687.413h63.271c19.192 0 34.763 15.548 34.763 34.753v203.069c0.002 19.207-15.569 34.765-34.763 34.765h-63.271c-19.202 0-34.774-15.559-34.774-34.765v-203.069c0-19.205 15.571-34.753 34.774-34.753z" />
<glyph unicode="&#xe913;" glyph-name="edit" d="M12.8-64v1024h725.333v-170.667h-85.333v85.333h-554.667v-853.333h554.667v213.333h85.333v-298.667h-725.333zM268.8 106.667v187.733l554.667 554.667 187.733-187.733-554.667-554.667h-187.733zM354.133 192h68.267l-68.267 68.267v-68.267zM413.867 320l68.267-68.267 409.6 409.6-68.267 68.267-409.6-409.6zM183.467 362.667v85.333h85.333v-85.333h-85.333zM183.467 533.333v85.333h213.333v-85.333h-213.333zM183.467 704v85.333h341.333v-85.333h-341.333z" />
</font>
</defs>
</svg>
