<?xml version="1.0" encoding="utf-8"?>
<!-- Generator: Adobe Illustrator 23.0.1, SVG Export Plug-In . SVG Version: 6.00 Build 0)  -->
<svg version="1.1" id="Layer_1" xmlns="http://www.w3.org/2000/svg" xmlns:xlink="http://www.w3.org/1999/xlink" x="0px" y="0px"
	 viewBox="0 0 90.7 90.7" style="enable-background:new 0 0 90.7 90.7;" xml:space="preserve">
<style type="text/css">
	.st0{fill:#231F20;}
</style>
<g transform="translate(0)">
	<path class="st0" d="M78.3,19H60.7v-3.7C60.7,6.9,53.9,0,45.4,0C37,0,30.1,6.8,30.1,15.2c0,0,0,0.1,0,0.1V19H12.4l-2.3,71.7h70.5
		L78.3,19z M37.1,15.4c0-4.6,3.6-8.3,8.2-8.4c0,0,0.1,0,0.1,0c4.6,0,8.4,3.8,8.4,8.4V19H37.1L37.1,15.4z M17.3,83.7L19.2,26h52.4
		l1.9,57.7H17.3z"/>
</g>
</svg>
