<?xml version="1.0" encoding="utf-8"?>
<!-- Generator: Adobe Illustrator 23.0.1, SVG Export Plug-In . SVG Version: 6.00 Build 0)  -->
<svg version="1.1" id="Capa_1" xmlns="http://www.w3.org/2000/svg" xmlns:xlink="http://www.w3.org/1999/xlink" x="0px" y="0px"
	 viewBox="0 0 90.7 90.7" style="enable-background:new 0 0 90.7 90.7;" xml:space="preserve">
<g>
	<g>
		<path d="M75,10.7H62.9V2.8C62.9,1.2,61.6,0,60,0c-0.2,0-0.3,0.1-0.3,0.1C59.7,0.1,59.6,0,59.5,0H31.1h-0.2h-0.2
			c-1.6,0-2.8,1.2-2.8,2.8v7.9H15.7c-3.5,0-6.2,2.7-6.2,6.2v4.5V27h5.4v57.6c0,3.5,2.7,6.1,6.1,6.1h48.7c3.5,0,6.2-2.7,6.2-6.1V27
			h5.3v-5.6v-4.5C81.2,13.4,78.5,10.7,75,10.7z M33.5,5.6h23.8v5.1H33.5V5.6z M70.2,84.6c0,0.4-0.2,0.5-0.5,0.5H21
			c-0.4,0-0.5-0.2-0.5-0.5V27h49.7V84.6z M75.5,21.4H15.2v-4.5c0-0.4,0.2-0.6,0.5-0.6H75c0.4,0,0.5,0.2,0.5,0.6L75.5,21.4L75.5,21.4
			z"/>
		<rect x="55.7" y="33.6" width="5.7" height="46.5"/>
		<rect x="42.6" y="33.6" width="5.7" height="46.5"/>
		<rect x="29.5" y="33.6" width="5.7" height="46.5"/>
	</g>
</g>
</svg>
