<?xml version="1.0" encoding="utf-8"?>
<!-- Generator: Adobe Illustrator 23.0.1, SVG Export Plug-In . SVG Version: 6.00 Build 0)  -->
<svg version="1.1" id="Layer_1" xmlns="http://www.w3.org/2000/svg" xmlns:xlink="http://www.w3.org/1999/xlink" x="0px" y="0px"
	 viewBox="0 0 90.7 90.7" style="enable-background:new 0 0 90.7 90.7;" xml:space="preserve">
<path d="M89.9,75.8L5.1,9.6c-1-0.8-2.4-0.6-3.2,0.3l-1.4,1.8c-0.8,1-0.6,2.4,0.3,3.2c0,0,0,0,0,0l84.8,66.3c1,0.8,2.4,0.6,3.2-0.4
	l1.4-1.8C91,78,90.8,76.6,89.9,75.8C89.9,75.8,89.9,75.8,89.9,75.8L89.9,75.8z M42.1,29.8l19.1,14.9c-0.3-8.7-7.6-15.6-16.3-15.3
	C43.9,29.5,43,29.6,42.1,29.8z M48.6,60.9L29.5,45.9c0.3,8.5,7.3,15.3,15.8,15.3C46.5,61.2,47.6,61.1,48.6,60.9L48.6,60.9z
	 M45.4,24.9c14.1,0.1,27.1,7.9,33.7,20.4c-1.7,3.1-3.8,6-6.2,8.5l5.3,4.2c3-3.2,5.5-6.8,7.5-10.6c0.7-1.3,0.7-2.8,0-4.1
	C78,28,62.5,18.3,45.4,18.2c-5.1,0-10.1,0.9-14.8,2.7l6.6,5.1C39.8,25.3,42.6,25,45.4,24.9z M45.4,65.8
	c-14.1-0.1-27.1-7.9-33.7-20.4c1.7-3.1,3.8-6,6.2-8.5l-5.3-4.2C9.6,35.8,7,39.4,5,43.3c-0.7,1.3-0.7,2.8,0,4.1
	c7.6,15.3,23.2,25,40.3,25.1c5.1,0,10.1-0.9,14.8-2.7l-6.6-5.1C50.9,65.4,48.1,65.7,45.4,65.8z"/>
</svg>
