<?xml version="1.0" encoding="utf-8"?>
<!-- Generator: Adobe Illustrator 23.0.1, SVG Export Plug-In . SVG Version: 6.00 Build 0)  -->
<svg version="1.1" id="Layer_1" xmlns="http://www.w3.org/2000/svg" xmlns:xlink="http://www.w3.org/1999/xlink" x="0px" y="0px"
	 viewBox="0 0 90.7 90.7" style="enable-background:new 0 0 90.7 90.7;" xml:space="preserve">
<path d="M45.4,29.8c-1.5,0-3,0.3-4.4,0.7c0.6,1.2,1,2.5,1,3.9c0,4.4-3.6,7.9-7.9,7.9c-1.4,0-2.7-0.4-3.9-1
	c-2.4,8.4,2.4,17.2,10.9,19.5S58.2,58.5,60.6,50c2.4-8.4-2.4-17.2-10.9-19.5C48.2,30,46.8,29.8,45.4,29.8z M85.7,43.7
	c-7.7-15.3-23.2-25-40.3-25.2C28.2,18.7,12.7,28.4,5,43.7c-0.6,1.3-0.6,2.9,0,4.1c7.7,15.3,23.2,25,40.3,25.2
	c17.1-0.2,32.7-9.9,40.3-25.2C86.3,46.5,86.3,45,85.7,43.7z M45.4,66.1C31.2,66,18.3,58.2,11.6,45.7c6.7-12.5,19.6-20.4,33.8-20.4
	c14.1,0.1,27.1,7.9,33.8,20.4C72.4,58.2,59.5,66,45.4,66.1z"/>
</svg>
