<?xml version="1.0" encoding="utf-8"?>
<!-- Generator: Adobe Illustrator 23.0.1, SVG Export Plug-In . SVG Version: 6.00 Build 0)  -->
<svg version="1.1" id="Layer_1" xmlns="http://www.w3.org/2000/svg" xmlns:xlink="http://www.w3.org/1999/xlink" x="0px" y="0px"
	 viewBox="0 0 90.7 90.7" style="enable-background:new 0 0 90.7 90.7;" xml:space="preserve">
<style type="text/css">
	.st0{fill:#231F20;}
</style>
<path class="st0" d="M45.4,27.7c-1.7,0-3.3,0.3-4.9,0.8c0.7,1.3,1.1,2.8,1.1,4.3c0,4.9-4,8.8-8.8,8.8c-1.5,0-3-0.4-4.3-1.1
	c-2.7,9.3,2.7,19.1,12.1,21.7s19.1-2.7,21.7-12.1c2.7-9.3-2.7-19.1-12.1-21.7C48.6,27.9,47,27.7,45.4,27.7z M90.2,43.1
	c-8.5-17-25.8-27.8-44.8-28c-19,0.2-36.3,11-44.8,28c-0.7,1.4-0.7,3.2,0,4.6c8.5,17,25.8,27.8,44.8,28c19-0.2,36.3-11,44.8-28
	C90.9,46.2,90.9,44.5,90.2,43.1z M45.4,68c-15.7-0.1-30.1-8.8-37.5-22.7c7.4-13.9,21.8-22.6,37.5-22.7c15.7,0.1,30.1,8.8,37.5,22.7
	C75.4,59.2,61.1,67.9,45.4,68z"/>
</svg>
