<?xml version="1.0" encoding="utf-8"?>
<!-- Generator: Adobe Illustrator 23.0.1, SVG Export Plug-In . SVG Version: 6.00 Build 0)  -->
<svg version="1.1" id="Capa_1" xmlns="http://www.w3.org/2000/svg" xmlns:xlink="http://www.w3.org/1999/xlink" x="0px" y="0px"
	 viewBox="0 0 90.7 90.7" style="enable-background:new 0 0 90.7 90.7;" xml:space="preserve">
<g>
	<g>
		<path d="M75.1,18.6h-2.3v-5.2C72.7,6,66.7,0,59.3,0H31.2c-7.4,0-13.4,6-13.4,13.4v5.2h-2.1c-7.4,0-13.4,6-13.4,13.4v21.6
			C2.2,61,8.3,67,15.7,67h2.1v17c0,3.7,3,6.7,6.7,6.7H66c3.7,0,6.7-3,6.7-6.7V67h2.3c7.4,0,13.4-6,13.4-13.4V32
			C88.5,24.6,82.4,18.6,75.1,18.6z M22.8,13.4c0-4.6,3.7-8.3,8.3-8.3h28.1c4.6,0,8.3,3.7,8.3,8.3v5.2H22.8V13.4z M67.6,84.1
			c0,0.9-0.7,1.6-1.6,1.6H24.4c-0.9,0-1.6-0.7-1.6-1.6V56h44.8V84.1z M83.4,53.6c0,4.6-3.7,8.3-8.3,8.3h-2.3V56h3.3
			c1.4,0,2.5-1.1,2.5-2.5s-1.1-2.5-2.5-2.5H14c-1.4,0-2.5,1.1-2.5,2.5S12.6,56,14,56h3.7V62h-2.1c-4.6,0-8.3-3.7-8.3-8.3V32
			c0-4.6,3.7-8.3,8.3-8.3h59.4c4.6,0,8.3,3.7,8.3,8.3V53.6z"/>
		<path d="M29,68.5h32.3c1.4,0,2.5-1.1,2.5-2.5s-1.1-2.5-2.5-2.5H29c-1.4,0-2.5,1.1-2.5,2.5S27.6,68.5,29,68.5z"/>
		<path d="M61.5,73.8H29.2c-1.4,0-2.5,1.1-2.5,2.5s1.1,2.5,2.5,2.5h32.3c1.4,0,2.5-1.1,2.5-2.5S62.9,73.8,61.5,73.8z"/>
		<path d="M75,28.6h-5.2c-1.4,0-2.5,1.1-2.5,2.5s1.1,2.5,2.5,2.5H75c1.4,0,2.5-1.1,2.5-2.5S76.4,28.6,75,28.6z"/>
	</g>
</g>
</svg>
