<?xml version="1.0" encoding="utf-8"?>
<!-- Generator: Adobe Illustrator 23.0.1, SVG Export Plug-In . SVG Version: 6.00 Build 0)  -->
<svg version="1.1" id="Layer_1" xmlns="http://www.w3.org/2000/svg" xmlns:xlink="http://www.w3.org/1999/xlink" x="0px" y="0px"
	 viewBox="0 0 90.7 90.7" style="enable-background:new 0 0 90.7 90.7;" xml:space="preserve">
<style type="text/css">
	.st0{fill:#231F20;}
</style>
<path class="st0" d="M77.7,38.7c0-21.4-17.3-38.9-38.7-38.9c0,0-0.1,0-0.1,0C17.4-0.2,0,17.2,0,38.6c0,0,0,0,0,0
	c0,21.4,17.4,38.8,38.8,38.8c0,0,0,0,0,0c9,0,17.8-3.1,24.7-8.8l22.4,22.4l4.8-4.8L68.4,63.9C74.4,56.8,77.7,47.9,77.7,38.7z
	 M38.8,70.7c-4.3,0-8.5-0.8-12.5-2.5c-3.8-1.6-7.3-3.9-10.2-6.8c-2.9-2.9-5.2-6.4-6.8-10.2C7.6,47.2,6.8,43,6.8,38.7
	c0-4.3,0.9-8.6,2.6-12.6c1.6-3.8,3.9-7.3,6.8-10.2c2.9-2.9,6.4-5.3,10.2-6.9c4-1.6,8.2-2.5,12.5-2.5c4.3,0,8.6,0.9,12.6,2.6
	c3.8,1.6,7.2,3.9,10.1,6.8c2.9,2.9,5.3,6.4,6.9,10.3c1.7,4,2.5,8.2,2.5,12.5c0,4.3-0.8,8.5-2.5,12.4c-1.6,3.8-3.9,7.3-6.8,10.1
	c-2.9,3-6.4,5.3-10.2,7C47.4,69.9,43.2,70.7,38.8,70.7z"/>
</svg>
