<?xml version="1.0" encoding="utf-8"?>
<!-- Generator: Adobe Illustrator 23.0.1, SVG Export Plug-In . SVG Version: 6.00 Build 0)  -->
<svg version="1.1" id="Layer_1" xmlns="http://www.w3.org/2000/svg" xmlns:xlink="http://www.w3.org/1999/xlink" x="0px" y="0px"
	 viewBox="0 0 90.7 90.7" style="enable-background:new 0 0 90.7 90.7;" xml:space="preserve">
<path d="M60.5,50.4c7.7-5.1,12.4-13.7,12.4-22.9C72.9,12.3,60.6,0,45.4,0c0,0,0,0,0,0C30.2,0,17.9,12.3,17.9,27.5c0,0,0,0,0,0
	c0,9.3,4.7,17.9,12.4,22.9C13.5,56.7,2.3,72.8,2.4,90.7h7.3C9.6,71,25.6,55,45.3,55c0,0,0,0,0,0C65.1,55,81,70.9,81.1,90.7
	c0,0,0,0,0,0.1h7.2C88.4,72.8,77.2,56.7,60.5,50.4z M25.1,27.5c0-11.2,9.1-20.2,20.2-20.2c11.2,0,20.2,9.1,20.2,20.2
	c0,11.2-9.1,20.2-20.2,20.2C34.2,47.7,25.1,38.7,25.1,27.5L25.1,27.5z"/>
</svg>
