<?xml version="1.0" encoding="utf-8"?>
<!-- Generator: Adobe Illustrator 23.0.1, SVG Export Plug-In . SVG Version: 6.00 Build 0)  -->
<svg version="1.1" id="Capa_1" xmlns="http://www.w3.org/2000/svg" xmlns:xlink="http://www.w3.org/1999/xlink" x="0px" y="0px"
	 viewBox="0 0 90.7 90.7" style="enable-background:new 0 0 90.7 90.7;" xml:space="preserve">
<g>
	<g>
		<path d="M45.4,62.2c-2.5,0-4.7,2.1-4.7,4.7c0,2.5,2.1,4.7,4.7,4.7c2.4,0,4.7-2.1,4.5-4.5C50,64.3,47.9,62.2,45.4,62.2z"/>
		<path d="M88.5,78.7c2.9-5.1,2.9-11.1,0-16.1L59.3,12c-2.9-5.1-8.1-8.1-14-8.1s-11.1,3-14,8.1L2.2,62.6c-2.9,5.1-2.9,11.2,0.1,16.2
			c2.9,5,8.1,8,13.9,8h58.3C80.3,86.8,85.6,83.8,88.5,78.7z M82.2,75c-1.6,2.8-4.5,4.5-7.7,4.5H16.1c-3.2,0-6-1.6-7.6-4.4
			c-1.6-2.8-1.6-6.1,0-8.9l29.2-50.6c1.6-2.8,4.4-4.4,7.6-4.4c3.2,0,6,1.7,7.6,4.4l29.2,50.6C83.8,69,83.8,72.3,82.2,75z"/>
		<path d="M44.2,29.4c-2.2,0.6-3.6,2.6-3.6,5.1c0.1,1.5,0.2,3,0.3,4.4c0.3,5.6,0.6,11.1,1,16.7c0.1,1.9,1.6,3.3,3.5,3.3
			c1.9,0,3.4-1.5,3.5-3.4c0-1.2,0-2.2,0.1-3.4c0.2-3.6,0.4-7.2,0.6-10.8c0.1-2.3,0.3-4.7,0.4-7c0-0.8-0.1-1.6-0.4-2.3
			C48.6,30,46.4,28.9,44.2,29.4z"/>
	</g>
</g>
</svg>
